<?xml version="1.0" encoding="UTF-8"?>
<svg width="1315px" height="1007px" viewBox="0 0 1315 1007" version="1.1" xmlns="http://www.w3.org/2000/svg" xmlns:xlink="http://www.w3.org/1999/xlink">
    <!-- Generator: Sketch 51.2 (57519) - http://www.bohemiancoding.com/sketch -->
    <title>Combined Shape</title>
    <desc>Created with Sketch.</desc>
    <defs>
        <linearGradient x1="-20.9669343%" y1="-11.1579547%" x2="65.8760217%" y2="93.2088118%" id="linearGradient-1">
            <stop stop-color="#FBFF26" offset="0%"></stop>
            <stop stop-color="#FF6A8F" offset="100%"></stop>
        </linearGradient>
    </defs>
    <g id="portfolio" stroke="none" stroke-width="1" fill="none" fill-rule="evenodd">
        <g id="desktop_fullHD_1920px_1366px" transform="translate(-200.000000, -162.000000)" fill="url(#linearGradient-1)">
            <path d="M1367.76151,241.578194 C1380.56245,236.058203 1394.67408,233 1409.5,233 C1467.76604,233 1515,280.233959 1515,338.5 C1515,377.240899 1494.11845,411.104651 1462.99663,429.449981 C1459.59992,431.55684 1455.92035,433.454542 1451.93495,435.118481 C1438.95012,440.829654 1424.5953,444 1409.5,444 C1404.04096,444 1398.67876,443.585375 1393.44318,442.785897 C1354.73684,438.944624 1327.71957,418.464419 1256.7936,418.464419 C1165.48358,418.464419 1179.96715,490.111206 1183.85718,501.348239 C1201.66843,552.799206 1211.34012,608.024978 1211.34012,665.5 C1211.34012,943.575372 984.94392,1169 705.670058,1169 C426.396197,1169 200,943.575372 200,665.5 C200,387.424628 426.396197,162 705.670058,162 C869.473699,162 1015.08625,239.551086 1107.495,359.790809 C1116.71395,371.78626 1188.61337,431.449985 1256.7936,354.348315 C1312.24402,291.642169 1334.29827,253.598426 1367.76151,241.578194 Z" id="Combined-Shape"></path>
        </g>
    </g>
</svg>