<?xml version="1.0" encoding="UTF-8"?>
<svg width="40px" height="40px" viewBox="0 0 40 40" version="1.1" xmlns="http://www.w3.org/2000/svg" xmlns:xlink="http://www.w3.org/1999/xlink">
    <!-- Generator: Sketch 51.2 (57519) - http://www.bohemiancoding.com/sketch -->
    <title>Path</title>
    <desc>Created with Sketch.</desc>
    <defs></defs>
    <g id="portfolio" stroke="none" stroke-width="1" fill="none" fill-rule="evenodd">
        <g id="svg_sprite" fill="#FFFFFF" fill-rule="nonzero">
            <path d="M7.00142568,32.9335159 C3.26615403,32.9335159 0.219749819,30.0020232 0.153678256,26.3440682 L2.80750403e-07,17.8359127 C-0.00107124952,14.0124722 3.06524944,11.0091516 6.8477477,11.0091516 L26.5143609,11.0091516 L26.5143609,14.5786016 L6.8477477,14.5786016 C5.07795494,14.5786016 3.64325443,15.983825 3.64325443,17.717256 C3.64331014,17.735763 3.69470325,20.590321 3.79743377,26.2809297 C3.82834798,27.99245 5.25372977,29.3640658 7.00142568,29.3640658 L14.3083484,29.3640658 L20.0346518,34.9584513 L25.7609552,29.3640658 L33.151181,29.3640658 C34.9209738,29.3640658 36.3556743,27.9588424 36.3556743,26.2254115 L36.3556743,6.84907287 C36.3556743,5.05399875 34.8330995,3.56945006 32.9940699,3.56945006 L1.73137682,3.56945006 L1.73137682,0 L32.9940699,0 C36.8421169,0 40,3.07901539 40,6.84907287 L40,26.2254115 C40,29.9301952 36.9336793,32.9335159 33.151181,32.9335159 L27.2677665,32.9335159 L20.0346518,40 L12.8015371,32.9335159 L7.00142568,32.9335159 Z" id="Path"></path>
        </g>
    </g>
</svg>