<?xml version="1.0" encoding="UTF-8"?>
<svg width="40px" height="40px" viewBox="0 0 40 40" version="1.1" xmlns="http://www.w3.org/2000/svg" xmlns:xlink="http://www.w3.org/1999/xlink">
    <!-- Generator: Sketch 51.1 (57501) - http://www.bohemiancoding.com/sketch -->
    <title>logo_hd</title>
    <desc>Created with Sketch.</desc>
    <defs></defs>
    <g id="portfolio" stroke="none" stroke-width="1" fill="none" fill-rule="evenodd">
        <g id="desktop_fullHD_1920px_1366px" transform="translate(-309.000000, -64.000000)" fill="#FFFFFF" fill-rule="nonzero">
            <g id="logo_hd" transform="translate(309.000000, 64.000000)">
                <path d="M7.36332551,33.6942072 C3.47694777,33.6942072 0.307304812,30.5799001 0.2385604,26.6938268 L0.0886374966,18.2187903 C0.087708439,18.1557654 0.087708439,18.1557654 0.0875226188,18.0927339 C0.0875226188,14.1569116 3.27788776,10.9662971 7.2134026,10.9662971 L26.3994684,10.9662971 C27.626672,10.9662971 28.621517,11.9612199 28.621517,13.1885194 C28.621517,14.4158188 27.626672,15.4107416 26.3994684,15.4107416 L7.2134026,15.4107416 C5.73229487,15.4107416 4.53161981,16.6115104 4.53161981,18.0927339 C4.53166644,18.1085483 4.5817806,20.9493739 4.6819623,26.615211 C4.70783385,28.0777117 5.90071023,29.2497627 7.36332551,29.2497627 L13.7567095,29.2497627 C14.345053,29.2497627 14.9093819,29.4831128 15.325933,29.8986368 L20.078089,34.6390754 L24.8302449,29.8986368 C25.246796,29.4831128 25.8111249,29.2497627 26.3994684,29.2497627 L32.87412,29.2497627 C34.3552278,29.2497627 35.5559028,28.0489939 35.5559028,26.5677704 L35.5559028,7.26685648 C35.5559028,5.72468184 34.2699504,4.44444444 32.7208478,4.44444444 L2.2220486,4.44444444 C0.994845044,4.44444444 0,3.44952167 0,2.22222222 C0,0.994922778 0.994845044,0 2.2220486,0 L32.7208478,0 C36.7198599,0 40,3.26556247 40,7.26685648 L40,26.5677704 C40,30.5035927 36.8096349,33.6942072 32.87412,33.6942072 L27.3182139,33.6942072 L21.6473125,39.3511259 C20.7800085,40.2162914 19.3761694,40.2162914 18.5088655,39.3511259 L12.837964,33.6942072 L7.36332551,33.6942072 Z" id="Path"></path>
            </g>
        </g>
    </g>
</svg>