<?xml version="1.0" encoding="UTF-8"?>
<svg width="92px" height="64px" viewBox="0 0 92 64" version="1.1" xmlns="http://www.w3.org/2000/svg" xmlns:xlink="http://www.w3.org/1999/xlink">
    <!-- Generator: Sketch 51.2 (57519) - http://www.bohemiancoding.com/sketch -->
    <title>“</title>
    <desc>Created with Sketch.</desc>
    <defs></defs>
    <g id="portfolio" stroke="none" stroke-width="1" fill="none" fill-rule="evenodd">
        <g id="svg_sprite" transform="translate(-150.000000, 0.000000)" fill="#F2F2F2">
            <path d="M221.794393,64 C214.056036,64 208.395657,61.33336 204.813084,56 C203.236752,53.837827 201.947046,50.954973 200.943925,47.3513514 C199.940805,43.7477297 199.439252,39.7838054 199.439252,35.4594595 C199.439252,27.9639265 201.373812,21.0450768 205.242991,14.7027027 C209.112169,8.36032865 214.772548,3.45947676 222.224299,0 L224.158879,3.89189189 C220.433003,5.62163027 217.101261,8.10809189 214.163551,11.3513514 C211.225842,14.5946108 209.183806,18.018 208.037383,21.6216216 C207.320869,23.6396497 206.962617,26.0180043 206.962617,28.7567568 C206.962617,30.9189297 207.105918,32.5044995 207.392523,33.5135135 C211.118399,29.0450227 216.348876,26.8108108 223.084112,26.8108108 C228.816228,26.8108108 233.401852,28.4324162 236.841121,31.6756757 C240.280391,34.9189351 242,39.4954659 242,45.4054054 C242,51.0270551 240.13709,55.5315146 236.411215,58.9189189 C232.68534,62.3063232 227.813114,64 221.794393,64 Z M172.35514,64 C164.616784,64 158.956404,61.33336 155.373832,56 C153.7975,53.837827 152.507793,50.954973 151.504673,47.3513514 C150.501553,43.7477297 150,39.7838054 150,35.4594595 C150,27.9639265 151.93456,21.0450768 155.803738,14.7027027 C159.672917,8.36032865 165.333296,3.45947676 172.785047,0 L174.719626,3.89189189 C170.993751,5.62163027 167.662008,8.10809189 164.724299,11.3513514 C161.78659,14.5946108 159.744554,18.018 158.598131,21.6216216 C157.881616,23.6396497 157.523364,26.0180043 157.523364,28.7567568 C157.523364,30.9189297 157.666665,32.5044995 157.953271,33.5135135 C161.679146,29.0450227 166.909624,26.8108108 173.64486,26.8108108 C179.376976,26.8108108 183.9626,28.4324162 187.401869,31.6756757 C190.841139,34.9189351 192.560748,39.4954659 192.560748,45.4054054 C192.560748,51.0270551 190.697838,55.5315146 186.971963,58.9189189 C183.246087,62.3063232 178.373862,64 172.35514,64 Z" id="“"></path>
        </g>
    </g>
</svg>